<?xml version="1.0" encoding="UTF-8" ?>
<!DOCTYPE svg PUBLIC "-//W3C//DTD SVG 1.1//EN" "http://www.w3.org/Graphics/SVG/1.1/DTD/svg11.dtd">
<svg width="1000pt" height="1000pt" viewBox="0 0 1000 1000" version="1.1" xmlns="http://www.w3.org/2000/svg">
<g id="#f3582cff">
<path fill="#f3582c" opacity="1.00" d=" M 442.52 193.49 C 444.51 190.95 447.89 190.36 450.94 190.41 C 484.30 190.49 517.66 190.41 551.02 190.45 C 554.55 190.29 558.07 192.07 559.74 195.25 C 563.78 202.72 564.60 211.40 567.83 219.19 C 579.37 221.49 591.23 221.87 602.88 223.52 C 630.70 227.02 658.61 230.02 686.20 235.05 C 700.42 237.89 715.07 247.03 719.11 261.71 C 726.21 309.81 733.62 357.89 740.92 405.97 C 741.42 409.14 741.56 412.40 742.61 415.46 C 745.41 418.15 749.15 419.55 752.40 421.62 C 769.10 431.71 785.27 443.06 798.62 457.41 C 810.05 469.64 818.92 484.42 823.39 500.62 C 828.62 517.91 828.81 536.11 829.19 554.00 C 829.17 591.67 829.21 629.33 829.17 667.00 C 829.25 670.77 828.77 674.63 829.58 678.36 C 836.45 682.15 843.99 685.75 848.33 692.63 C 851.59 697.45 850.86 703.50 850.93 709.01 C 850.81 713.61 851.23 718.25 850.69 722.84 C 850.34 725.63 847.66 727.27 845.29 728.26 C 841.06 729.87 836.46 730.07 831.99 730.30 C 819.02 730.51 806.05 730.15 793.09 730.41 C 792.23 733.87 792.61 737.47 792.57 741.00 C 792.63 759.02 792.57 777.04 792.62 795.06 C 792.93 801.15 789.01 807.09 783.36 809.30 C 779.42 810.82 775.12 810.45 771.00 810.50 C 746.66 810.41 722.31 810.51 697.98 810.46 C 690.12 810.88 682.81 803.98 683.19 796.05 C 683.14 778.70 683.19 761.35 683.18 744.00 C 683.12 739.48 683.51 734.91 682.74 730.44 C 658.61 730.28 634.46 730.27 610.33 730.44 C 609.55 742.46 610.86 754.57 609.72 766.57 C 561.15 766.82 512.57 766.60 464.00 766.67 C 439.76 766.59 415.51 766.83 391.28 766.57 C 390.14 754.57 391.45 742.46 390.67 730.44 C 366.54 730.27 342.38 730.28 318.25 730.44 C 317.61 733.92 317.81 737.47 317.80 741.00 C 317.88 758.34 317.76 775.68 317.87 793.02 C 317.86 796.64 317.86 800.56 315.70 803.67 C 313.08 808.03 308.07 810.55 303.02 810.45 C 277.69 810.52 252.34 810.39 227.01 810.51 C 223.37 810.50 219.55 810.45 216.26 808.70 C 211.32 806.12 208.08 800.65 208.37 795.05 C 208.45 775.36 208.33 755.66 208.46 735.97 C 208.43 734.10 208.39 732.22 207.92 730.41 C 193.94 730.05 179.94 730.73 165.97 730.12 C 160.82 729.53 154.64 729.32 151.08 725.01 C 149.25 720.97 150.34 716.30 150.07 712.00 C 150.36 705.53 148.90 698.38 152.66 692.63 C 157.00 685.74 164.55 682.15 171.42 678.35 C 171.81 676.96 171.81 675.49 171.86 674.07 C 171.76 643.71 171.84 613.36 171.82 583.00 C 171.89 562.09 171.30 541.10 173.58 520.27 C 175.63 503.36 180.97 486.68 190.45 472.43 C 206.77 448.01 231.71 431.19 256.78 416.80 C 259.25 415.55 258.93 412.44 259.48 410.14 C 266.70 361.01 274.86 312.01 281.99 262.87 C 283.93 252.86 291.61 245.03 300.25 240.20 C 310.73 234.03 323.20 233.65 334.87 231.50 C 367.32 226.67 399.92 222.92 432.51 219.27 C 437.21 211.34 436.79 201.00 442.52 193.49 M 479.41 262.48 C 434.89 263.83 390.41 266.46 346.08 270.71 C 339.35 271.39 332.29 271.84 326.27 275.25 C 320.59 278.30 317.06 284.13 315.09 290.09 C 312.88 297.03 311.56 304.23 310.73 311.46 C 309.13 327.63 307.42 343.79 305.80 359.97 C 305.02 367.28 307.48 375.02 312.84 380.15 C 317.44 384.54 323.65 387.23 329.99 387.56 C 349.33 387.96 368.65 388.68 388.00 388.73 C 410.65 389.53 433.33 389.56 456.00 389.76 C 479.33 390.40 502.67 390.28 526.00 390.18 C 551.66 389.35 577.34 389.83 603.00 389.02 C 621.33 388.22 639.68 388.72 658.00 387.77 C 664.96 387.43 672.24 388.52 678.88 385.89 C 684.82 383.73 690.04 379.40 692.76 373.64 C 695.39 368.52 695.64 362.56 694.92 356.95 C 693.33 343.28 692.10 329.57 690.57 315.89 C 689.56 304.77 688.18 293.23 682.75 283.27 C 679.16 276.68 671.98 273.01 664.75 271.99 C 649.56 269.78 634.23 268.81 618.93 267.62 C 572.50 264.40 525.98 261.41 479.41 262.48 M 422.30 478.46 C 415.77 479.59 408.78 480.33 403.21 484.21 C 398.88 487.30 398.32 493.06 398.29 497.94 C 398.31 544.32 398.30 590.69 398.30 637.07 C 398.40 641.10 398.59 646.21 402.58 648.45 C 406.73 650.42 411.52 650.02 416.00 650.18 C 434.67 650.14 453.34 650.12 472.01 650.19 C 474.18 650.16 476.38 650.10 478.52 649.70 C 478.61 590.59 478.69 531.47 478.48 472.37 C 459.72 473.97 440.95 475.83 422.30 478.46 M 522.52 472.37 C 522.18 476.90 522.47 481.45 522.41 486.00 C 522.45 540.57 522.32 595.14 522.47 649.70 C 525.94 650.35 529.49 650.17 533.00 650.18 C 551.67 650.09 570.35 650.22 589.02 650.13 C 592.79 649.85 597.24 650.03 600.09 647.11 C 602.74 644.10 602.55 639.80 602.71 636.05 C 602.67 590.01 602.70 543.98 602.70 497.94 C 602.71 492.82 601.96 486.74 597.20 483.78 C 591.15 480.01 583.83 479.36 576.95 478.21 C 558.85 475.86 540.69 473.88 522.52 472.37 M 243.33 485.11 C 229.53 487.65 218.27 499.99 217.00 513.96 C 215.36 527.08 222.69 540.53 234.31 546.69 C 240.84 550.42 248.69 551.30 256.04 550.11 C 268.07 548.00 278.39 538.57 281.79 526.87 C 285.52 515.15 281.63 501.63 272.63 493.36 C 265.00 486.01 253.66 482.95 243.33 485.11 M 741.46 485.73 C 729.84 489.20 720.50 499.37 718.37 511.35 C 715.33 525.70 723.43 541.22 736.64 547.40 C 746.62 552.27 759.23 551.65 768.57 545.55 C 775.99 540.87 781.51 533.20 783.34 524.60 C 786.02 512.92 781.72 500.12 772.56 492.41 C 764.23 485.06 752.06 482.66 741.46 485.73 Z" />
</g>
</svg>
